<svg width="82" height="10" viewBox="0 0 82 10" fill="none" xmlns="http://www.w3.org/2000/svg">
<rect width="60" height="10" transform="translate(11)" fill="#333333"/>
<path fill-rule="evenodd" clip-rule="evenodd" d="M5.40694 0.116113C5.74421 -0.0387039 6.13548 -0.0387044 6.47275 0.116112C6.70624 0.223286 6.87187 0.426158 7.01862 0.655448C7.16617 0.885986 7.32806 1.19935 7.52966 1.58957L7.52966 1.58958L7.53756 1.60487L7.70004 1.91937C7.83828 2.18695 7.87848 2.25707 7.92895 2.3082C7.98101 2.36093 8.04343 2.40306 8.11255 2.43211C8.17956 2.46026 8.26145 2.47253 8.56867 2.50557L8.71617 2.52143L8.73387 2.52334H8.73387C9.21818 2.57541 9.60507 2.61701 9.89797 2.67467C10.1868 2.73154 10.4561 2.81572 10.6445 3.0018C10.9141 3.26804 11.0411 3.64019 10.9882 4.00946C10.9513 4.26755 10.7868 4.49033 10.5896 4.70247C10.3898 4.91754 10.1045 5.17394 9.74744 5.49484L9.73439 5.50657L9.57867 5.6465C9.30818 5.88958 9.23883 5.95834 9.19997 6.03156C9.15986 6.10719 9.13849 6.19079 9.13757 6.27579C9.13667 6.35798 9.16548 6.45178 9.28935 6.79347L9.2952 6.80962L9.29522 6.80966C9.47802 7.31387 9.62279 7.7132 9.70499 8.02387C9.78484 8.32565 9.82958 8.622 9.72548 8.87861C9.57899 9.23973 9.26164 9.51035 8.87305 9.60554C8.59768 9.67303 8.30217 9.59443 8.00554 9.4812C7.70104 9.36495 7.31545 9.17837 6.82929 8.94312L6.81337 8.93542L6.43535 8.75247C6.18048 8.62913 6.11088 8.5988 6.04409 8.58663C5.97521 8.57416 5.90448 8.57416 5.83561 8.58663C5.76882 8.5988 5.69922 8.62913 5.44434 8.75247L5.06633 8.93542L5.05036 8.94312C4.56422 9.17837 4.17865 9.36495 3.87417 9.4812C3.57755 9.59443 3.28202 9.67303 3.00666 9.60554C2.61806 9.51035 2.30069 9.23973 2.15421 8.87861C2.05011 8.622 2.09488 8.32565 2.1747 8.02387C2.25691 7.7132 2.40167 7.31387 2.58451 6.80962V6.80958L2.59034 6.79347C2.71421 6.45178 2.74301 6.35798 2.74215 6.27579C2.7412 6.19079 2.71986 6.10719 2.6797 6.03156C2.64085 5.95834 2.57153 5.88958 2.30101 5.6465L2.1453 5.50657L2.13224 5.4948V5.4948C1.77516 5.17389 1.48989 4.91754 1.29005 4.70247C1.09293 4.49033 0.928408 4.26755 0.89146 4.00946C0.838596 3.64019 0.965535 3.26804 1.2352 3.0018C1.42364 2.81572 1.69285 2.73154 1.98173 2.67467C2.27464 2.61701 2.66152 2.57541 3.14581 2.52334L3.16354 2.52143L3.31101 2.50557C3.61825 2.47253 3.70015 2.46026 3.76712 2.43211C3.83627 2.40306 3.89868 2.36093 3.95073 2.3082C4.0012 2.25707 4.0414 2.18695 4.17965 1.91937L4.34213 1.60487L4.35005 1.58958C4.55165 1.19935 4.7135 0.885986 4.86106 0.655448C5.00781 0.426158 5.17341 0.223291 5.40694 0.116113Z" fill="#FFC250"/>
<path fill-rule="evenodd" clip-rule="evenodd" d="M23.0466 0.116113C23.3839 -0.0387039 23.7751 -0.0387044 24.1124 0.116112C24.3459 0.223286 24.5115 0.426158 24.6583 0.655448C24.8058 0.885986 24.9677 1.19935 25.1693 1.58957L25.1693 1.58958L25.1772 1.60487L25.3397 1.91937C25.4779 2.18695 25.5181 2.25707 25.5686 2.3082C25.6207 2.36093 25.6831 2.40306 25.7522 2.43211C25.8192 2.46026 25.9011 2.47253 26.2083 2.50557L26.3558 2.52143L26.3735 2.52334H26.3735C26.8578 2.57541 27.2447 2.61701 27.5376 2.67467C27.8265 2.73154 28.0957 2.81572 28.2842 3.0018C28.5538 3.26804 28.6807 3.64019 28.6279 4.00946C28.5909 4.26755 28.4264 4.49033 28.2293 4.70247C28.0294 4.91754 27.7442 5.17394 27.3871 5.49484L27.374 5.50657L27.2183 5.6465C26.9478 5.88958 26.8785 5.95834 26.8396 6.03156C26.7995 6.10719 26.7781 6.19079 26.7772 6.27579C26.7763 6.35798 26.8051 6.45178 26.929 6.79347L26.9349 6.80962L26.9349 6.80966C27.1177 7.31387 27.2624 7.7132 27.3446 8.02387C27.4245 8.32565 27.4692 8.622 27.3651 8.87861C27.2186 9.23973 26.9013 9.51035 26.5127 9.60554C26.2373 9.67303 25.9418 9.59443 25.6452 9.4812C25.3407 9.36495 24.9551 9.17837 24.4689 8.94312L24.453 8.93542L24.075 8.75247C23.8201 8.62913 23.7505 8.5988 23.6837 8.58663C23.6149 8.57416 23.5441 8.57416 23.4753 8.58663C23.4085 8.5988 23.3389 8.62913 23.084 8.75247L22.706 8.93542L22.69 8.94312C22.2039 9.17837 21.8183 9.36495 21.5138 9.4812C21.2172 9.59443 20.9217 9.67303 20.6463 9.60554C20.2577 9.51035 19.9403 9.23973 19.7939 8.87861C19.6898 8.622 19.7345 8.32565 19.8143 8.02387C19.8966 7.7132 20.0413 7.31387 20.2242 6.80962V6.80958L20.23 6.79347C20.3539 6.45178 20.3827 6.35798 20.3818 6.27579C20.3809 6.19079 20.3595 6.10719 20.3193 6.03156C20.2805 5.95834 20.2112 5.88958 19.9407 5.6465L19.785 5.50657L19.7719 5.4948V5.4948C19.4148 5.17389 19.1295 4.91754 18.9297 4.70247C18.7326 4.49033 18.5681 4.26755 18.5311 4.00946C18.4782 3.64019 18.6052 3.26804 18.8748 3.0018C19.0633 2.81572 19.3325 2.73154 19.6214 2.67467C19.9143 2.61701 20.3012 2.57541 20.7855 2.52334L20.8032 2.52143L20.9507 2.50557C21.2579 2.47253 21.3398 2.46026 21.4068 2.43211C21.4759 2.40306 21.5383 2.36093 21.5904 2.3082C21.6408 2.25707 21.681 2.18695 21.8193 1.91937L21.9818 1.60487L21.9897 1.58958C22.1913 1.19935 22.3531 0.885986 22.5007 0.655448C22.6475 0.426158 22.8131 0.223291 23.0466 0.116113Z" fill="#FFC250"/>
<path fill-rule="evenodd" clip-rule="evenodd" d="M40.6862 0.116113C41.0235 -0.0387039 41.4148 -0.0387044 41.752 0.116112C41.9855 0.223286 42.1512 0.426158 42.2979 0.655448C42.4455 0.885986 42.6074 1.19935 42.809 1.58957L42.809 1.58958L42.8169 1.60487L42.9793 1.91937C43.1176 2.18695 43.1578 2.25707 43.2082 2.3082C43.2603 2.36093 43.3227 2.40306 43.3918 2.43211C43.4589 2.46026 43.5407 2.47253 43.848 2.50557L43.9955 2.52143L44.0132 2.52334H44.0132C44.4975 2.57541 44.8844 2.61701 45.1773 2.67467C45.4661 2.73154 45.7354 2.81572 45.9238 3.0018C46.1934 3.26804 46.3204 3.64019 46.2675 4.00946C46.2306 4.26755 46.0661 4.49033 45.8689 4.70247C45.6691 4.91754 45.3838 5.17394 45.0267 5.49484L45.0137 5.50657L44.858 5.6465C44.5875 5.88958 44.5181 5.95834 44.4793 6.03156C44.4392 6.10719 44.4178 6.19079 44.4169 6.27579C44.416 6.35798 44.4448 6.45178 44.5686 6.79347L44.5745 6.80962L44.5745 6.80966C44.7573 7.31387 44.9021 7.7132 44.9843 8.02387C45.0641 8.32565 45.1089 8.622 45.0048 8.87861C44.8583 9.23973 44.5409 9.51035 44.1523 9.60554C43.877 9.67303 43.5815 9.59443 43.2848 9.4812C42.9803 9.36495 42.5947 9.17837 42.1086 8.94312L42.0927 8.93542L41.7147 8.75247C41.4598 8.62913 41.3902 8.5988 41.3234 8.58663C41.2545 8.57416 41.1838 8.57416 41.1149 8.58663C41.0481 8.5988 40.9785 8.62913 40.7236 8.75247L40.3456 8.93542L40.3297 8.94312C39.8435 9.17837 39.4579 9.36495 39.1535 9.4812C38.8568 9.59443 38.5613 9.67303 38.286 9.60554C37.8974 9.51035 37.58 9.23973 37.4335 8.87861C37.3294 8.622 37.3742 8.32565 37.454 8.02387C37.5362 7.7132 37.681 7.31387 37.8638 6.80962V6.80958L37.8696 6.79347C37.9935 6.45178 38.0223 6.35798 38.0215 6.27579C38.0205 6.19079 37.9992 6.10719 37.959 6.03156C37.9202 5.95834 37.8508 5.88958 37.5803 5.6465L37.4246 5.50657L37.4115 5.4948V5.4948C37.0545 5.17389 36.7692 4.91754 36.5694 4.70247C36.3722 4.49033 36.2077 4.26755 36.1708 4.00946C36.1179 3.64019 36.2448 3.26804 36.5145 3.0018C36.7029 2.81572 36.9721 2.73154 37.261 2.67467C37.5539 2.61701 37.9408 2.57541 38.4251 2.52334L38.4428 2.52143L38.5903 2.50557C38.8975 2.47253 38.9794 2.46026 39.0464 2.43211C39.1156 2.40306 39.178 2.36093 39.23 2.3082C39.2805 2.25707 39.3207 2.18695 39.4589 1.91937L39.6214 1.60487L39.6293 1.58958C39.8309 1.19935 39.9928 0.885986 40.1404 0.655448C40.2871 0.426158 40.4527 0.223291 40.6862 0.116113Z" fill="#FFC250"/>
<path fill-rule="evenodd" clip-rule="evenodd" d="M58.3259 0.116113C58.6632 -0.0387039 59.0544 -0.0387044 59.3917 0.116112C59.6252 0.223286 59.7908 0.426158 59.9376 0.655448C60.0851 0.885986 60.247 1.19935 60.4486 1.58957L60.4486 1.58958L60.4565 1.60487L60.619 1.91937C60.7572 2.18695 60.7974 2.25707 60.8479 2.3082C60.9 2.36093 60.9624 2.40306 61.0315 2.43211C61.0985 2.46026 61.1804 2.47253 61.4876 2.50557L61.6351 2.52143L61.6528 2.52334H61.6528C62.1371 2.57541 62.524 2.61701 62.8169 2.67467C63.1058 2.73154 63.375 2.81572 63.5635 3.0018C63.8331 3.26804 63.96 3.64019 63.9072 4.00946C63.8702 4.26755 63.7057 4.49033 63.5086 4.70247C63.3087 4.91754 63.0235 5.17394 62.6664 5.49484L62.6533 5.50657L62.4976 5.6465C62.2271 5.88958 62.1578 5.95834 62.1189 6.03156C62.0788 6.10719 62.0574 6.19079 62.0565 6.27579C62.0556 6.35798 62.0844 6.45178 62.2083 6.79347L62.2141 6.80962L62.2142 6.80966C62.397 7.31387 62.5417 7.7132 62.6239 8.02387C62.7038 8.32565 62.7485 8.622 62.6444 8.87861C62.4979 9.23973 62.1806 9.51035 61.792 9.60554C61.5166 9.67303 61.2211 9.59443 60.9245 9.4812C60.62 9.36495 60.2344 9.17837 59.7482 8.94312L59.7323 8.93542L59.3543 8.75247C59.0994 8.62913 59.0298 8.5988 58.963 8.58663C58.8942 8.57416 58.8234 8.57416 58.7546 8.58663C58.6878 8.5988 58.6182 8.62913 58.3633 8.75247L57.9853 8.93542L57.9693 8.94312C57.4832 9.17837 57.0976 9.36495 56.7931 9.4812C56.4965 9.59443 56.201 9.67303 55.9256 9.60554C55.537 9.51035 55.2196 9.23973 55.0732 8.87861C54.9691 8.622 55.0138 8.32565 55.0936 8.02387C55.1759 7.7132 55.3206 7.31387 55.5035 6.80962V6.80958L55.5093 6.79347C55.6331 6.45178 55.662 6.35798 55.6611 6.27579C55.6601 6.19079 55.6388 6.10719 55.5986 6.03156C55.5598 5.95834 55.4905 5.88958 55.22 5.6465L55.0642 5.50657L55.0512 5.4948V5.4948C54.6941 5.17389 54.4088 4.91754 54.209 4.70247C54.0119 4.49033 53.8474 4.26755 53.8104 4.00946C53.7575 3.64019 53.8845 3.26804 54.1541 3.0018C54.3426 2.81572 54.6118 2.73154 54.9007 2.67467C55.1936 2.61701 55.5805 2.57541 56.0648 2.52334L56.0825 2.52143L56.23 2.50557C56.5372 2.47253 56.6191 2.46026 56.6861 2.43211C56.7552 2.40306 56.8176 2.36093 56.8697 2.3082C56.9201 2.25707 56.9603 2.18695 57.0986 1.91937L57.2611 1.60487L57.269 1.58958C57.4706 1.19935 57.6324 0.885986 57.78 0.655448C57.9268 0.426158 58.0924 0.223291 58.3259 0.116113Z" fill="#FFC250"/>
<path fill-rule="evenodd" clip-rule="evenodd" d="M75.9655 0.116113C76.3028 -0.0387039 76.6941 -0.0387044 77.0313 0.116112C77.2648 0.223286 77.4305 0.426158 77.5772 0.655448C77.7248 0.885986 77.8867 1.19935 78.0883 1.58957L78.0883 1.58958L78.0962 1.60487L78.2586 1.91937C78.3969 2.18695 78.4371 2.25707 78.4875 2.3082C78.5396 2.36093 78.602 2.40306 78.6711 2.43211C78.7382 2.46026 78.82 2.47253 79.1273 2.50557L79.2748 2.52143L79.2925 2.52334H79.2925C79.7768 2.57541 80.1637 2.61701 80.4566 2.67467C80.7454 2.73154 81.0147 2.81572 81.2031 3.0018C81.4727 3.26804 81.5997 3.64019 81.5468 4.00946C81.5099 4.26755 81.3454 4.49033 81.1482 4.70247C80.9484 4.91754 80.6631 5.17394 80.306 5.49484L80.293 5.50657L80.1373 5.6465C79.8668 5.88958 79.7974 5.95834 79.7586 6.03156C79.7185 6.10719 79.6971 6.19079 79.6962 6.27579C79.6953 6.35798 79.7241 6.45178 79.8479 6.79347L79.8538 6.80962L79.8538 6.80966C80.0366 7.31387 80.1814 7.7132 80.2636 8.02387C80.3434 8.32565 80.3882 8.622 80.2841 8.87861C80.1376 9.23973 79.8202 9.51035 79.4316 9.60554C79.1563 9.67303 78.8608 9.59443 78.5641 9.4812C78.2596 9.36495 77.874 9.17837 77.3879 8.94312L77.372 8.93542L76.9939 8.75247C76.7391 8.62913 76.6695 8.5988 76.6027 8.58663C76.5338 8.57416 76.4631 8.57416 76.3942 8.58663C76.3274 8.5988 76.2578 8.62913 76.0029 8.75247L75.6249 8.93542L75.609 8.94312C75.1228 9.17837 74.7372 9.36495 74.4328 9.4812C74.1361 9.59443 73.8406 9.67303 73.5653 9.60554C73.1767 9.51035 72.8593 9.23973 72.7128 8.87861C72.6087 8.622 72.6535 8.32565 72.7333 8.02387C72.8155 7.7132 72.9603 7.31387 73.1431 6.80962V6.80958L73.1489 6.79347C73.2728 6.45178 73.3016 6.35798 73.3007 6.27579C73.2998 6.19079 73.2785 6.10719 73.2383 6.03156C73.1994 5.95834 73.1301 5.88958 72.8596 5.6465L72.7039 5.50657L72.6908 5.4948V5.4948C72.3338 5.17389 72.0485 4.91754 71.8486 4.70247C71.6515 4.49033 71.487 4.26755 71.4501 4.00946C71.3972 3.64019 71.5241 3.26804 71.7938 3.0018C71.9822 2.81572 72.2514 2.73154 72.5403 2.67467C72.8332 2.61701 73.2201 2.57541 73.7044 2.52334L73.7221 2.52143L73.8696 2.50557C74.1768 2.47253 74.2587 2.46026 74.3257 2.43211C74.3949 2.40306 74.4573 2.36093 74.5093 2.3082C74.5598 2.25707 74.6 2.18695 74.7382 1.91937L74.9007 1.60487L74.9086 1.58958C75.1102 1.19935 75.2721 0.885986 75.4197 0.655448C75.5664 0.426158 75.732 0.223291 75.9655 0.116113Z" fill="#FFC250"/>
</svg>
