<svg width="14" height="14" viewBox="0 0 14 14" fill="none" xmlns="http://www.w3.org/2000/svg">
<path d="M5.83301 7.58331C6.3399 8.26096 7.11612 8.68505 7.96022 8.7455C8.80432 8.80596 9.63305 8.49681 10.2313 7.89831L11.9813 6.14831C13.0867 5.00387 13.0709 3.18473 11.9458 2.05967C10.8208 0.934614 9.00161 0.918806 7.85717 2.02414L6.85384 3.02164" stroke="#422F8A" stroke-opacity="0.87" stroke-width="1.16667" stroke-linecap="round" stroke-linejoin="round"/>
<path d="M8.16629 6.41666C7.6594 5.73901 6.88318 5.31492 6.03908 5.25447C5.19499 5.19402 4.36625 5.50316 3.76796 6.10166L2.01796 7.85166C0.912627 8.9961 0.928434 10.8152 2.05349 11.9403C3.17855 13.0654 4.99769 13.0812 6.14213 11.9758L7.13963 10.9783" stroke="#422F8A" stroke-opacity="0.87" stroke-width="1.16667" stroke-linecap="round" stroke-linejoin="round"/>
</svg>
