<svg width="14" height="14" viewBox="0 0 14 14" fill="none" xmlns="http://www.w3.org/2000/svg">
<path fill-rule="evenodd" clip-rule="evenodd" d="M6.99967 8.16667C7.64401 8.16667 8.16634 7.64433 8.16634 7C8.16634 6.35567 7.64401 5.83334 6.99967 5.83334C6.35534 5.83334 5.83301 6.35567 5.83301 7C5.83301 7.64433 6.35534 8.16667 6.99967 8.16667Z" stroke="#422F8A" stroke-opacity="0.87" stroke-width="1.16667" stroke-linecap="round" stroke-linejoin="round"/>
<path fill-rule="evenodd" clip-rule="evenodd" d="M11.6667 8.16667C12.311 8.16667 12.8333 7.64433 12.8333 7C12.8333 6.35567 12.311 5.83334 11.6667 5.83334C11.0223 5.83334 10.5 6.35567 10.5 7C10.5 7.64433 11.0223 8.16667 11.6667 8.16667Z" stroke="#422F8A" stroke-opacity="0.87" stroke-width="1.16667" stroke-linecap="round" stroke-linejoin="round"/>
<path fill-rule="evenodd" clip-rule="evenodd" d="M2.33366 8.16667C2.97799 8.16667 3.50033 7.64433 3.50033 7C3.50033 6.35567 2.97799 5.83334 2.33366 5.83334C1.68933 5.83334 1.16699 6.35567 1.16699 7C1.16699 7.64433 1.68933 8.16667 2.33366 8.16667Z" stroke="#422F8A" stroke-opacity="0.87" stroke-width="1.16667" stroke-linecap="round" stroke-linejoin="round"/>
</svg>
