<svg width="48" height="49" viewBox="0 0 48 49" fill="none" xmlns="http://www.w3.org/2000/svg">
<rect y="0.133301" width="48" height="48" rx="20" fill="#2BDE73"/>
<path d="M24 48.1333C37.2548 48.1333 48 37.3881 48 24.1333C48 10.8785 37.2548 0.133301 24 0.133301C10.7452 0.133301 0 10.8785 0 24.1333C0 37.3881 10.7452 48.1333 24 48.1333Z" fill="#2BDE73"/>
<path d="M21.3973 20.3123L25.7987 13.9354C26.6309 12.734 27.705 12.1333 29.0221 12.1333C30.0965 12.1333 31.026 12.5144 31.8121 13.2769C32.5975 14.0393 32.9901 14.952 32.9901 16.0148C32.9901 16.8004 32.7826 17.4937 32.3665 18.0944L28.398 23.8648L33.2502 30.0165C33.7355 30.6288 33.978 31.3452 33.978 32.1653C33.978 33.2515 33.5972 34.1839 32.8344 34.9637C32.072 35.7438 31.1472 36.1333 30.0618 36.1333C28.8717 36.1333 27.9651 35.7467 27.341 34.9724L21.3973 27.5558V31.6456C21.3973 32.8126 21.1953 33.7192 20.7908 34.3661C20.0515 35.5442 18.9771 36.1333 17.5679 36.1333C16.2854 36.1333 15.2915 35.7001 14.5872 34.8338C13.9286 34.0366 13.5996 32.9793 13.5996 31.663V16.5C13.5996 15.2523 13.9342 14.2245 14.6046 13.4157C15.3092 12.561 16.2794 12.1333 17.5155 12.1333C18.6941 12.1333 19.6759 12.561 20.4615 13.4157C20.9004 13.8891 21.1777 14.3686 21.2931 14.8539C21.3626 15.1545 21.3973 15.7144 21.3973 16.5347V20.3123" fill="white"/>
</svg>
