<svg width="44" height="44" viewBox="0 0 44 44" fill="none" xmlns="http://www.w3.org/2000/svg">
<circle cx="22" cy="22" r="22" fill="#333333"/>
<rect width="18.9398" height="18.9398" transform="translate(13 13)" fill="#333333"/>
<path d="M19.3389 19.3135L23.532 19.3292M19.3152 25.6031L22.4601 25.6149M19.3271 22.4583L25.6167 22.4819" stroke="black" stroke-width="1.4" stroke-linecap="round"/>
<path d="M13.4178 19.2391C14.1117 16.3301 16.3935 14.0654 19.3076 13.3933C21.4121 12.908 23.6004 12.9162 25.7012 13.4174C28.6101 14.1112 30.8749 16.3931 31.5469 19.3072C32.0322 21.4117 32.024 23.6 31.5229 25.7008C30.829 28.6097 28.5471 30.8745 25.6331 31.5465C23.5286 32.0318 21.3403 32.0236 19.2395 31.5225C16.3306 30.8286 14.0658 28.5467 13.3938 25.6327C12.9084 23.5282 12.9167 21.3399 13.4178 19.2391Z" stroke="black" stroke-width="1.4"/>
</svg>
