<svg width="12" height="12" viewBox="0 0 12 12" fill="none" xmlns="http://www.w3.org/2000/svg">
<path d="M9.77344 5.64799C9.72118 5.70043 9.65908 5.74204 9.59071 5.77043C9.52234 5.79882 9.44903 5.81343 9.375 5.81343C9.30097 5.81343 9.22766 5.79882 9.15929 5.77043C9.09092 5.74204 9.02882 5.70043 8.97656 5.64799L6.56297 3.23439V10.125C6.56297 10.2742 6.5037 10.4173 6.39822 10.5228C6.29273 10.6283 6.14965 10.6875 6.00047 10.6875C5.85128 10.6875 5.70821 10.6283 5.60272 10.5228C5.49723 10.4173 5.43797 10.2742 5.43797 10.125V3.23439L3.02344 5.64799C2.91776 5.75366 2.77444 5.81303 2.625 5.81303C2.47556 5.81303 2.33223 5.75366 2.22656 5.64799C2.12089 5.54232 2.06152 5.39899 2.06152 5.24955C2.06152 5.10011 2.12089 4.95679 2.22656 4.85111L5.60156 1.47611C5.65382 1.42367 5.71592 1.38206 5.78429 1.35367C5.85266 1.32528 5.92597 1.31067 6 1.31067C6.07403 1.31067 6.14734 1.32528 6.21571 1.35367C6.28408 1.38206 6.34618 1.42367 6.39844 1.47611L9.77344 4.85111C9.82588 4.90337 9.86748 4.96547 9.89588 5.03384C9.92427 5.10221 9.93888 5.17552 9.93888 5.24955C9.93888 5.32358 9.92427 5.39689 9.89588 5.46526C9.86748 5.53363 9.82588 5.59573 9.77344 5.64799Z" fill="#33C6AB"/>
</svg>
