<svg width="3" height="13" viewBox="0 0 3 13" fill="none" xmlns="http://www.w3.org/2000/svg">
<path d="M3 1.3938C3 0.625063 2.41211 -0.00390628 1.69357 -0.00390631C0.975036 -0.00390634 0.387143 0.625063 0.387143 1.3938C0.387143 2.16255 0.975036 2.79151 1.69357 2.79151C2.41211 2.79151 3 2.16255 3 1.3938Z" fill="#A4A4A4"/>
<path d="M3 11.1778C3 10.409 2.41211 9.78007 1.69357 9.78007C0.975035 9.78007 0.387142 10.409 0.387142 11.1778C0.387142 11.9465 0.975035 12.5755 1.69357 12.5755C2.41211 12.5755 3 11.9465 3 11.1778Z" fill="#A4A4A4"/>
<path d="M3 6.28579C3 5.51705 2.41211 4.88808 1.69357 4.88808C0.975035 4.88808 0.387143 5.51705 0.387143 6.28579C0.387143 7.05453 0.975035 7.6835 1.69357 7.6835C2.41211 7.6835 3 7.05453 3 6.28579Z" fill="#A4A4A4"/>
</svg>
