<svg width="3" height="13" viewBox="0 0 3 13" fill="none" xmlns="http://www.w3.org/2000/svg">
<path d="M3.00098 1.39771C3.00098 0.62897 2.37201 -2.74931e-08 1.60327 -6.10959e-08C0.834525 -9.46986e-08 0.205555 0.62897 0.205555 1.39771C0.205555 2.16645 0.834525 2.79542 1.60327 2.79542C2.37201 2.79542 3.00098 2.16645 3.00098 1.39771Z" fill="#A4A4A4"/>
<path d="M3.00098 11.1817C3.00098 10.4129 2.37201 9.78397 1.60327 9.78397C0.834525 9.78397 0.205555 10.4129 0.205555 11.1817C0.205555 11.9504 0.834525 12.5794 1.60327 12.5794C2.37201 12.5794 3.00098 11.9504 3.00098 11.1817Z" fill="#A4A4A4"/>
<path d="M3.00098 6.2897C3.00098 5.52096 2.37201 4.89199 1.60327 4.89199C0.834525 4.89199 0.205555 5.52096 0.205555 6.2897C0.205555 7.05844 0.834525 7.68741 1.60327 7.68741C2.37201 7.68741 3.00098 7.05844 3.00098 6.2897Z" fill="#A4A4A4"/>
</svg>
